<svg id="Layer_1" data-name="Layer 1" xmlns="http://www.w3.org/2000/svg" viewBox="0 0 1366 1500"><rect x="586.44" y="467.82" width="248.5" height="293.83" rx="20.5" style="fill:#a80038"/><path d="M621,487.38c44,3.46,96.2-10.26,178.41,2.47a2.58,2.58,0,0,1,2.15,2.14c6,39,6.31,79.9,3.56,115.65a2.55,2.55,0,0,1-1.74,2.22c-15.17,5-23,7.54-24.72,15.15-2,8.57,12.72,21,26.34,25.06a2.53,2.53,0,0,1,1.76,2.46c-.44,29.12-1,53.36-1.47,82.47a2.52,2.52,0,0,1-2.09,2.48c-11.69,1.77-34.32-8.31-52.48-28.4-5.75-6.37-12.27-11.07-14.89-16.76-12.52-20.27-22.62-32.19-34.59-27.67-1.71.65-4.64,4.09-3.05,9.69a5.62,5.62,0,0,0,.38.78c10.34,23.64,23,48.33,42.21,64.2,1.52,1.25.12,3.86-1.85,4a510,510,0,0,1-119.36-3.93l-2.8-.43a2.61,2.61,0,0,1-2.16-2.64c1.6-146.17,4.53-223.86,6-244.87C620.68,490.72,619.05,487.23,621,487.38Z" style="fill:#fff"/><path d="M722.52,569.26c.2,15.2-.43,27.94-11.8,28.09-13.77.17-12.35-13.17-12.54-28.38s-1.6-30.5,13.9-30.71C727.91,538.06,722.33,554.05,722.52,569.26Z" style="fill:#a80038"/><path d="M491.21,838.19h-7.15v32.35q0,6.39-2.81,9.41a9.57,9.57,0,0,1-7.35,3,9.39,9.39,0,0,1-7.56-3.15c-1.78-2.11-2.68-5.2-2.68-9.28V793.07q0-6.6,3-9.55c2-2,5.15-2.95,9.54-2.95h33.18a100.57,100.57,0,0,1,11.74.58,29.56,29.56,0,0,1,8.79,2.37,25.45,25.45,0,0,1,8.38,5.7,25,25,0,0,1,5.53,8.62,28.74,28.74,0,0,1,1.89,10.41q0,11.26-6.35,18t-19.27,9.55a37,37,0,0,1,10.37,8.52,86.38,86.38,0,0,1,8.83,12,88.44,88.44,0,0,1,6,11.47q2.18,5.12,2.17,7a7.23,7.23,0,0,1-1.27,4,8.89,8.89,0,0,1-3.47,3.09,10.89,10.89,0,0,1-5.08,1.13,9.86,9.86,0,0,1-5.77-1.61,15.35,15.35,0,0,1-4-4.09c-1.12-1.64-2.65-4.07-4.57-7.28l-8.17-13.6a75,75,0,0,0-7.87-11.4,19.35,19.35,0,0,0-7-5.35A24,24,0,0,0,491.21,838.19Zm11.67-42.31H484.06v27.68h18.27a51,51,0,0,0,12.36-1.27,14.46,14.46,0,0,0,7.66-4.32q2.65-3.06,2.65-8.42a13,13,0,0,0-2.13-7.38A12.84,12.84,0,0,0,517,797.4Q513.39,795.89,502.88,795.88Z" style="fill:#111"/><path d="M630.36,844.86a44.34,44.34,0,0,1-2.61,15.45,34.09,34.09,0,0,1-7.56,12.16,33.26,33.26,0,0,1-11.81,7.79A41.75,41.75,0,0,1,592.92,883a40.59,40.59,0,0,1-15.31-2.74,33.87,33.87,0,0,1-19.34-20,47.74,47.74,0,0,1,0-31,33.92,33.92,0,0,1,7.48-12.08,33,33,0,0,1,11.82-7.73,44.79,44.79,0,0,1,30.77,0,33.23,33.23,0,0,1,19.4,19.92A44.42,44.42,0,0,1,630.36,844.86Zm-18.82,0q0-11.48-5-17.86a16.4,16.4,0,0,0-13.57-6.39,16.79,16.79,0,0,0-9.68,2.85,18.16,18.16,0,0,0-6.46,8.42,38.24,38.24,0,0,0,0,25.82,18.41,18.41,0,0,0,6.39,8.41,16.55,16.55,0,0,0,9.78,2.92,16.38,16.38,0,0,0,13.57-6.42Q611.53,856.19,611.54,844.86Z" style="fill:#111"/><path d="M693.82,872.4V870a42,42,0,0,1-7.07,7.15,26.26,26.26,0,0,1-8.11,4.29,32.79,32.79,0,0,1-10,1.41A25.93,25.93,0,0,1,656.42,880a20.58,20.58,0,0,1-8.34-7.76q-3.51-6-3.51-17.17V817.93c0-3.75.85-6.56,2.55-8.41a8.64,8.64,0,0,1,6.73-2.78,8.93,8.93,0,0,1,6.86,2.81q2.61,2.82,2.61,8.38v30a46.39,46.39,0,0,0,1.1,10.95,13.23,13.23,0,0,0,4,6.94,11.3,11.3,0,0,0,7.73,2.51,15.7,15.7,0,0,0,8.93-2.82,16.47,16.47,0,0,0,6.11-7.35q1.58-4,1.58-17.45v-22.8q0-5.56,2.61-8.38a8.87,8.87,0,0,1,6.8-2.81,8.66,8.66,0,0,1,6.73,2.78c1.69,1.85,2.54,4.66,2.54,8.41v54.33q0,5.36-2.44,8a8.68,8.68,0,0,1-12.63-.11C694.65,878.34,693.82,875.74,693.82,872.4Z" style="fill:#111"/><path d="M731.12,808.38h2.06V797.12q0-4.53.24-7.11a10.39,10.39,0,0,1,1.34-4.43,8.38,8.38,0,0,1,3.16-3.12,9,9,0,0,1,4.6-1.21,9.27,9.27,0,0,1,6.45,2.68,8,8,0,0,1,2.44,4.36,39.93,39.93,0,0,1,.52,7.32v12.77h6.86a8.77,8.77,0,0,1,6.08,1.89,6.24,6.24,0,0,1,2.1,4.85,5.41,5.41,0,0,1-3,5.28q-3,1.51-8.55,1.52h-3.5v34.47a55.09,55.09,0,0,0,.31,6.77,6.89,6.89,0,0,0,1.64,3.85c.9,1,2.35,1.47,4.37,1.47a23.27,23.27,0,0,0,4.46-.58,23,23,0,0,1,4.4-.58,5.63,5.63,0,0,1,4.08,1.81,6.15,6.15,0,0,1,1.82,4.5q0,4.54-4.94,6.94T753.85,883q-8.79,0-13.32-3a13.69,13.69,0,0,1-5.95-8.17,55.44,55.44,0,0,1-1.4-13.94v-36H730.7q-4.05,0-6.18-1.93a6.28,6.28,0,0,1-2.13-4.87,6.07,6.07,0,0,1,2.24-4.85C726.11,809,728.28,808.38,731.12,808.38Z" style="fill:#111"/><path d="M832.22,849.46H795.54a24.69,24.69,0,0,0,2.58,11.26A17.22,17.22,0,0,0,814,870.54a22.27,22.27,0,0,0,6.14-.79,19.84,19.84,0,0,0,5.4-2.47,39.58,39.58,0,0,0,4.8-3.61q2.21-1.92,5.71-5.21a6.11,6.11,0,0,1,4.12-1.24,6.82,6.82,0,0,1,4.67,1.58,5.64,5.64,0,0,1,1.78,4.46,12.13,12.13,0,0,1-2,5.94,23.51,23.51,0,0,1-6,6.53,34.16,34.16,0,0,1-10.1,5.18,43.28,43.28,0,0,1-14,2.06q-18.07,0-28.09-10.3t-10-27.95a46.6,46.6,0,0,1,2.47-15.42,34,34,0,0,1,7.21-12.19,31.26,31.26,0,0,1,11.68-7.8,41.85,41.85,0,0,1,15.38-2.71q11,0,18.86,4.64a30.5,30.5,0,0,1,11.78,12,31.51,31.51,0,0,1,3.91,15q0,7.08-4,9.17T832.22,849.46Zm-36.68-10.65h34q-.69-9.62-5.19-14.39a15.53,15.53,0,0,0-11.85-4.77,15,15,0,0,0-11.5,4.84Q796.5,829.34,795.54,838.81Z" style="fill:#111"/><path d="M863.47,871.57V790.25q0-5.62,2.5-8.51a8.51,8.51,0,0,1,6.77-2.89,8.87,8.87,0,0,1,6.87,2.85q2.61,2.85,2.61,8.55v81.32c0,3.81-.88,6.65-2.65,8.56a8.92,8.92,0,0,1-6.83,2.84,8.47,8.47,0,0,1-6.7-3C864.33,878.05,863.47,875.24,863.47,871.57Z" style="fill:#111"/><path d="M949,872.4a58.19,58.19,0,0,1-13.15,7.93A36.86,36.86,0,0,1,921.57,883a27.14,27.14,0,0,1-12.67-2.84,20.94,20.94,0,0,1-8.41-7.73,20.05,20.05,0,0,1-3-10.58,19,19,0,0,1,4.88-13.12q4.88-5.43,13.39-7.28c1.19-.27,4.15-.89,8.86-1.85s8.76-1.85,12.13-2.65,7-1.77,11-2.92q-.35-7.41-3-10.88t-11-3.47q-7.14,0-10.75,2a17.5,17.5,0,0,0-6.18,6q-2.58,4-3.64,5.25c-.71.85-2.23,1.27-4.57,1.27a8,8,0,0,1-5.46-2,6.63,6.63,0,0,1-2.3-5.19,15.91,15.91,0,0,1,3.5-9.62q3.51-4.66,10.92-7.69t18.48-3q12.36,0,19.44,2.92a18.05,18.05,0,0,1,10,9.24q2.92,6.32,2.92,16.75,0,6.6,0,11.2t-.1,10.23a38,38,0,0,0,1.75,11,34.53,34.53,0,0,1,1.75,7.38,6.92,6.92,0,0,1-2.71,5.26,9.14,9.14,0,0,1-6.15,2.36,8.29,8.29,0,0,1-5.7-2.71A40.43,40.43,0,0,1,949,872.4Zm-1.24-27.13a93.89,93.89,0,0,1-12,3.19q-7.87,1.68-10.89,2.47a14.76,14.76,0,0,0-5.77,3.1,7.91,7.91,0,0,0-2.75,6.42,9.5,9.5,0,0,0,3.23,7.24,12,12,0,0,0,8.45,3,21.94,21.94,0,0,0,10.27-2.44,16.31,16.31,0,0,0,6.9-6.28q2.53-4.26,2.54-14Z" style="fill:#111"/><path d="M545.24,928.35h-1.59v7.19a3,3,0,0,1-.62,2.09,2.14,2.14,0,0,1-1.64.67,2.08,2.08,0,0,1-1.68-.7,3.14,3.14,0,0,1-.59-2.06V918.32a3,3,0,0,1,.65-2.12,2.92,2.92,0,0,1,2.13-.65h7.37a24.13,24.13,0,0,1,2.61.12,6.81,6.81,0,0,1,2,.53,5.75,5.75,0,0,1,1.86,1.27,5.6,5.6,0,0,1,1.23,1.91,6.41,6.41,0,0,1,.42,2.32,5.6,5.6,0,0,1-1.41,4,8.18,8.18,0,0,1-4.28,2.12,8.22,8.22,0,0,1,2.3,1.89,18.86,18.86,0,0,1,2,2.66,20,20,0,0,1,1.34,2.55,5,5,0,0,1,.48,1.57,1.65,1.65,0,0,1-.28.87,2.06,2.06,0,0,1-.77.69,2.44,2.44,0,0,1-1.13.25,2.23,2.23,0,0,1-1.29-.36,3.46,3.46,0,0,1-.89-.9c-.25-.37-.59-.91-1-1.62l-1.82-3a16.16,16.16,0,0,0-1.75-2.54,4.33,4.33,0,0,0-1.56-1.19A5.48,5.48,0,0,0,545.24,928.35Zm2.59-9.4h-4.18v6.15h4.06a11.3,11.3,0,0,0,2.75-.28,3.25,3.25,0,0,0,1.7-1,2.79,2.79,0,0,0,.59-1.87,2.85,2.85,0,0,0-.48-1.64,2.76,2.76,0,0,0-1.31-1.06A9.24,9.24,0,0,0,547.83,919Z" style="fill:#a80038"/><path d="M571.48,915.16a11.83,11.83,0,0,1,6,1.42,9.22,9.22,0,0,1,3.78,4,13.75,13.75,0,0,1,1.28,6.11,15,15,0,0,1-.7,4.72,10.24,10.24,0,0,1-2.11,3.68,9.2,9.2,0,0,1-3.45,2.38,13.67,13.67,0,0,1-9.38,0,9.48,9.48,0,0,1-3.47-2.39,10.46,10.46,0,0,1-2.1-3.71,15.11,15.11,0,0,1-.71-4.69,14.57,14.57,0,0,1,.74-4.73,10.25,10.25,0,0,1,2.15-3.66A9.23,9.23,0,0,1,566.9,916,12.39,12.39,0,0,1,571.48,915.16Zm6.44,11.51a10.48,10.48,0,0,0-.8-4.26,5.89,5.89,0,0,0-2.26-2.72,6.59,6.59,0,0,0-5.9-.41,5.51,5.51,0,0,0-2,1.49,7.16,7.16,0,0,0-1.31,2.49,11.28,11.28,0,0,0-.48,3.41,11.6,11.6,0,0,0,.48,3.45,7,7,0,0,0,1.36,2.56,5.76,5.76,0,0,0,2,1.52,6.2,6.2,0,0,0,2.5.5,6.09,6.09,0,0,0,3.19-.87,5.9,5.9,0,0,0,2.32-2.69A10.3,10.3,0,0,0,577.92,926.67Z" style="fill:#a80038"/><path d="M586.42,928.67V917.91a3,3,0,0,1,.62-2.06,2.07,2.07,0,0,1,1.62-.69,2.13,2.13,0,0,1,1.67.69,3,3,0,0,1,.62,2.06v11a10,10,0,0,0,.42,3.13,3.67,3.67,0,0,0,1.49,2,5.49,5.49,0,0,0,3,.69,4.47,4.47,0,0,0,3.75-1.41,6.87,6.87,0,0,0,1.1-4.28v-11.1a3.08,3.08,0,0,1,.61-2.07,2.12,2.12,0,0,1,1.64-.68,2.16,2.16,0,0,1,1.65.68,2.93,2.93,0,0,1,.64,2.07v10.76a16,16,0,0,1-.51,4.38,6.79,6.79,0,0,1-1.94,3.08,7.34,7.34,0,0,1-2.83,1.65,12.31,12.31,0,0,1-3.79.52,15.65,15.65,0,0,1-4.44-.55,7.25,7.25,0,0,1-3-1.73,6.9,6.9,0,0,1-1.72-3A15.12,15.12,0,0,1,586.42,928.67Z" style="fill:#a80038"/><path d="M624.67,919.29h-4.95v16.25a3,3,0,0,1-.62,2.08,2.09,2.09,0,0,1-1.62.68,2.15,2.15,0,0,1-1.64-.68,2.94,2.94,0,0,1-.64-2.08V919.29h-4.94a2.52,2.52,0,0,1-1.73-.52,1.75,1.75,0,0,1-.56-1.35,1.71,1.71,0,0,1,.59-1.37,2.52,2.52,0,0,1,1.7-.5h14.41a2.55,2.55,0,0,1,1.74.51,1.87,1.87,0,0,1,0,2.71A2.58,2.58,0,0,1,624.67,919.29Z" style="fill:#a80038"/><path d="M644.42,919H634.21v5.5h9.4a2.24,2.24,0,0,1,1.55.46,1.58,1.58,0,0,1,.51,1.23,1.65,1.65,0,0,1-.5,1.24,2.21,2.21,0,0,1-1.56.48h-9.4v6.37h10.56a2.32,2.32,0,0,1,1.61.49,1.73,1.73,0,0,1,.54,1.32,1.67,1.67,0,0,1-.54,1.29,2.27,2.27,0,0,1-1.61.5H632.45a2.89,2.89,0,0,1-2.13-.66,2.92,2.92,0,0,1-.65-2.12V918.32a3.8,3.8,0,0,1,.29-1.59,1.85,1.85,0,0,1,.91-.9,3.79,3.79,0,0,1,1.58-.28h12A2.33,2.33,0,0,1,646,916a1.62,1.62,0,0,1,.52,1.26,1.64,1.64,0,0,1-.52,1.27A2.33,2.33,0,0,1,644.42,919Z" style="fill:#a80038"/><path d="M663.33,935.54v-7.1L657.86,920a20.32,20.32,0,0,1-1-1.78,2.72,2.72,0,0,1-.3-1.12,1.78,1.78,0,0,1,.6-1.34,2.1,2.1,0,0,1,1.49-.57,1.82,1.82,0,0,1,1.41.53,16.36,16.36,0,0,1,1.45,2.1l4.18,6.79,4.23-6.79c.25-.42.46-.77.64-1a5.88,5.88,0,0,1,.57-.81,2.62,2.62,0,0,1,.69-.57,2.06,2.06,0,0,1,.93-.2,2,2,0,0,1,1.43.56,1.75,1.75,0,0,1,.57,1.29,2.61,2.61,0,0,1-.29,1.19,14.06,14.06,0,0,1-1,1.65l-5.6,8.59v7.1a2.94,2.94,0,0,1-.64,2.08,2.16,2.16,0,0,1-1.63.68,2.11,2.11,0,0,1-1.64-.68A3,3,0,0,1,663.33,935.54Z" style="fill:#a80038"/><path d="M687.31,915.16a11.83,11.83,0,0,1,6,1.42,9.22,9.22,0,0,1,3.78,4,13.75,13.75,0,0,1,1.28,6.11,15,15,0,0,1-.7,4.72,10.24,10.24,0,0,1-2.11,3.68,9.2,9.2,0,0,1-3.45,2.38,13.67,13.67,0,0,1-9.38,0,9.48,9.48,0,0,1-3.47-2.39,10.46,10.46,0,0,1-2.1-3.71,15.11,15.11,0,0,1-.71-4.69,14.57,14.57,0,0,1,.74-4.73,10.25,10.25,0,0,1,2.15-3.66,9.23,9.23,0,0,1,3.42-2.32A12.39,12.39,0,0,1,687.31,915.16Zm6.44,11.51a10.48,10.48,0,0,0-.8-4.26,5.89,5.89,0,0,0-2.26-2.72,6.59,6.59,0,0,0-5.9-.41,5.51,5.51,0,0,0-2,1.49,7.16,7.16,0,0,0-1.31,2.49,11.28,11.28,0,0,0-.48,3.41,11.6,11.6,0,0,0,.48,3.45,7,7,0,0,0,1.36,2.56,5.76,5.76,0,0,0,2,1.52,6.2,6.2,0,0,0,2.5.5,6.09,6.09,0,0,0,3.19-.87,5.9,5.9,0,0,0,2.32-2.69A10.3,10.3,0,0,0,693.75,926.67Z" style="fill:#a80038"/><path d="M702.25,928.67V917.91a3,3,0,0,1,.62-2.06,2.07,2.07,0,0,1,1.62-.69,2.13,2.13,0,0,1,1.67.69,3,3,0,0,1,.62,2.06v11a10,10,0,0,0,.42,3.13,3.67,3.67,0,0,0,1.49,2,5.49,5.49,0,0,0,3,.69,4.47,4.47,0,0,0,3.75-1.41,6.87,6.87,0,0,0,1.1-4.28v-11.1a3.08,3.08,0,0,1,.61-2.07,2.12,2.12,0,0,1,1.64-.68,2.16,2.16,0,0,1,1.65.68,2.93,2.93,0,0,1,.64,2.07v10.76a16,16,0,0,1-.51,4.38,6.86,6.86,0,0,1-1.93,3.08,7.45,7.45,0,0,1-2.84,1.65,12.31,12.31,0,0,1-3.79.52,15.65,15.65,0,0,1-4.44-.55,7.25,7.25,0,0,1-3-1.73,6.9,6.9,0,0,1-1.72-3A15.12,15.12,0,0,1,702.25,928.67Z" style="fill:#a80038"/><path d="M732.06,928.35h-1.59v7.19a3,3,0,0,1-.63,2.09,2.1,2.1,0,0,1-1.63.67,2.08,2.08,0,0,1-1.68-.7,3.09,3.09,0,0,1-.59-2.06V918.32a2.37,2.37,0,0,1,2.77-2.77h7.38a24.39,24.39,0,0,1,2.61.12,6.81,6.81,0,0,1,1.95.53,5.75,5.75,0,0,1,1.86,1.27,5.6,5.6,0,0,1,1.23,1.91,6.41,6.41,0,0,1,.42,2.32,5.6,5.6,0,0,1-1.41,4,8.18,8.18,0,0,1-4.28,2.12,8.22,8.22,0,0,1,2.3,1.89,18.79,18.79,0,0,1,2,2.66,19,19,0,0,1,1.35,2.55,5,5,0,0,1,.48,1.57,1.59,1.59,0,0,1-.29.87,1.92,1.92,0,0,1-.77.69,2.38,2.38,0,0,1-1.13.25,2.22,2.22,0,0,1-1.28-.36,3.46,3.46,0,0,1-.89-.9q-.37-.56-1-1.62l-1.81-3a16.87,16.87,0,0,0-1.75-2.54,4.42,4.42,0,0,0-1.56-1.19A5.48,5.48,0,0,0,732.06,928.35Zm2.59-9.4h-4.18v6.15h4.06a11.35,11.35,0,0,0,2.75-.28,3.25,3.25,0,0,0,1.7-1,2.79,2.79,0,0,0,.59-1.87,2.85,2.85,0,0,0-.48-1.64,2.76,2.76,0,0,0-1.31-1.06A9.24,9.24,0,0,0,734.65,919Z" style="fill:#a80038"/><path d="M759.07,915.55H765a16.21,16.21,0,0,1,3.95.42,7.22,7.22,0,0,1,3,1.61q3.5,3,3.5,9.09a18.11,18.11,0,0,1-.35,3.68,11,11,0,0,1-1.09,3,9.16,9.16,0,0,1-1.87,2.39,7.92,7.92,0,0,1-2,1.3,9.14,9.14,0,0,1-2.3.68,17.73,17.73,0,0,1-2.77.2h-5.91a3.7,3.7,0,0,1-1.86-.37,1.74,1.74,0,0,1-.82-1.06,7,7,0,0,1-.19-1.76V918.32a2.38,2.38,0,0,1,2.78-2.77Zm1.76,3.58v15.19h3.43q1.13,0,1.77-.06a5.21,5.21,0,0,0,1.33-.31,3.66,3.66,0,0,0,1.19-.68c1.52-1.29,2.27-3.49,2.27-6.63a9.72,9.72,0,0,0-1-5,4.41,4.41,0,0,0-2.46-2.1,12.19,12.19,0,0,0-3.54-.45Z" style="fill:#a80038"/><path d="M785.49,928.35H783.9v7.19a3,3,0,0,1-.62,2.09,2.12,2.12,0,0,1-1.63.67,2.06,2.06,0,0,1-1.68-.7,3.09,3.09,0,0,1-.6-2.06V918.32a2.91,2.91,0,0,1,.66-2.12,2.88,2.88,0,0,1,2.12-.65h7.37a24.13,24.13,0,0,1,2.61.12,6.81,6.81,0,0,1,2,.53,5.69,5.69,0,0,1,1.87,1.27,5.6,5.6,0,0,1,1.23,1.91,6.41,6.41,0,0,1,.42,2.32,5.56,5.56,0,0,1-1.42,4,8.14,8.14,0,0,1-4.28,2.12,8.26,8.26,0,0,1,2.31,1.89,19.6,19.6,0,0,1,2,2.66,20,20,0,0,1,1.34,2.55,5,5,0,0,1,.48,1.57,1.57,1.57,0,0,1-.28.87,2.06,2.06,0,0,1-.77.69,2.41,2.41,0,0,1-1.13.25,2.17,2.17,0,0,1-1.28-.36,3.35,3.35,0,0,1-.9-.9c-.25-.37-.58-.91-1-1.62l-1.82-3a16.93,16.93,0,0,0-1.74-2.54,4.44,4.44,0,0,0-1.57-1.19A5.44,5.44,0,0,0,785.49,928.35Zm2.6-9.4H783.9v6.15H788a11.3,11.3,0,0,0,2.75-.28,3.25,3.25,0,0,0,1.7-1A2.74,2.74,0,0,0,793,922a2.92,2.92,0,0,0-.47-1.64,2.81,2.81,0,0,0-1.31-1.06A9.28,9.28,0,0,0,788.09,919Z" style="fill:#a80038"/><path d="M816.63,919H806.42v5.5h9.4a2.24,2.24,0,0,1,1.55.46,1.58,1.58,0,0,1,.51,1.23,1.65,1.65,0,0,1-.5,1.24,2.21,2.21,0,0,1-1.56.48h-9.4v6.37H817a2.32,2.32,0,0,1,1.61.49,1.73,1.73,0,0,1,.54,1.32,1.67,1.67,0,0,1-.54,1.29,2.27,2.27,0,0,1-1.61.5H804.66a2.38,2.38,0,0,1-2.78-2.78V918.32a3.8,3.8,0,0,1,.29-1.59,1.85,1.85,0,0,1,.91-.9,3.82,3.82,0,0,1,1.58-.28h12a2.33,2.33,0,0,1,1.61.48,1.63,1.63,0,0,1,.53,1.26,1.65,1.65,0,0,1-.53,1.27A2.33,2.33,0,0,1,816.63,919Z" style="fill:#a80038"/><path d="M837.05,935.39,836,932.58h-9.09l-1.07,2.87a10.24,10.24,0,0,1-1.07,2.26,1.69,1.69,0,0,1-1.45.59,2.15,2.15,0,0,1-1.51-.62,1.92,1.92,0,0,1-.66-1.42,3.24,3.24,0,0,1,.15-1c.11-.32.27-.78.51-1.36l5.72-14.53c.16-.42.36-.92.59-1.5a7.62,7.62,0,0,1,.73-1.46,3,3,0,0,1,1-.94,3.63,3.63,0,0,1,3.15,0,3,3,0,0,1,1,.93,6.42,6.42,0,0,1,.66,1.21c.18.43.4,1,.68,1.73l5.84,14.44a7.24,7.24,0,0,1,.69,2.4,2,2,0,0,1-.65,1.42,2.09,2.09,0,0,1-1.56.65,2,2,0,0,1-.92-.19,1.91,1.91,0,0,1-.64-.52,4.84,4.84,0,0,1-.56-1C837.36,936.13,837.19,935.73,837.05,935.39Zm-9-6.22h6.68l-3.37-9.23Z" style="fill:#a80038"/><path d="M852.77,934.55l-3.59-14.26v15.45a2.82,2.82,0,0,1-.57,1.92,2.1,2.1,0,0,1-3,0,2.77,2.77,0,0,1-.58-1.93V918a2.21,2.21,0,0,1,.76-2,3.67,3.67,0,0,1,2.06-.51h1.41a5.42,5.42,0,0,1,1.83.22,1.54,1.54,0,0,1,.85.83,13.79,13.79,0,0,1,.63,1.94l3.25,12.25,3.25-12.25a12.81,12.81,0,0,1,.62-1.94,1.6,1.6,0,0,1,.85-.83,5.49,5.49,0,0,1,1.84-.22h1.41a3.67,3.67,0,0,1,2.06.51,2.23,2.23,0,0,1,.76,2v17.71a2.82,2.82,0,0,1-.57,1.92,2,2,0,0,1-1.54.64,1.9,1.9,0,0,1-1.48-.64,2.82,2.82,0,0,1-.58-1.92V920.29l-3.58,14.26c-.24.92-.43,1.6-.58,2a2.79,2.79,0,0,1-.81,1.19,2.42,2.42,0,0,1-1.65.53,2.51,2.51,0,0,1-1.35-.34,2.47,2.47,0,0,1-.85-.88,5.21,5.21,0,0,1-.48-1.18Q853,935.26,852.77,934.55Z" style="fill:#a80038"/></svg>